<svg xmlns="http://www.w3.org/2000/svg" xmlns:xlink="http://www.w3.org/1999/xlink" viewBox="0 0 1173.52 1599.34"><defs><style>.cls-1,.cls-4,.cls-8{fill:#fff;}.cls-2{fill:#231f20;stroke-width:14.75px;stroke:url(#Безымянный_градиент_5);}.cls-2,.cls-6,.cls-7{stroke-miterlimit:10;}.cls-11,.cls-13,.cls-2,.cls-3,.cls-4,.cls-5,.cls-6,.cls-7{opacity:0.4;}.cls-11,.cls-13,.cls-2,.cls-3,.cls-4,.cls-6,.cls-7,.cls-8{isolation:isolate;}.cls-3{fill:url(#Безымянный_градиент_5-2);}.cls-13,.cls-6,.cls-7{fill:none;}.cls-6,.cls-7{stroke-width:5.53px;}.cls-6{stroke:url(#Безымянный_градиент_5-3);}.cls-7{stroke:#fff;}.cls-9{fill:#36a9e1;}.cls-10{fill:#f1f2f2;}.cls-11{fill:url(#Безымянный_градиент_5-4);}.cls-12{fill:url(#Безымянный_градиент_5-5);}</style><linearGradient id="Безымянный_градиент_5" x1="-602.64" y1="447.17" x2="396.99" y2="447.17" gradientTransform="matrix(1, 0, 0, -1, 744.33, 1786.28)" gradientUnits="userSpaceOnUse"><stop offset="0" stop-color="#2484c6"/><stop offset="1" stop-color="#2484c6" stop-opacity="0"/></linearGradient><linearGradient id="Безымянный_градиент_5-2" x1="-172.11" y1="1133.97" x2="26.92" y2="1133.97" xlink:href="#Безымянный_градиент_5"/><linearGradient id="Безымянный_градиент_5-3" x1="-352.14" y1="1022.52" x2="156.97" y2="1022.52" xlink:href="#Безымянный_градиент_5"/><linearGradient id="Безымянный_градиент_5-4" x1="-427.85" y1="550.24" x2="283.58" y2="550.24" xlink:href="#Безымянный_градиент_5"/><linearGradient id="Безымянный_градиент_5-5" x1="-654.75" y1="1260.08" x2="152.59" y2="1260.08" xlink:href="#Безымянный_градиент_5"/></defs><title>меню </title><g id="Слой_2" data-name="Слой 2"><g id="Слой_1-2" data-name="Слой 1"><g id="Objects"><rect class="cls-1" width="1173.52" height="1594.92"/><path class="cls-2" d="M149.93,1591.95l983.36-2.86s-23.07-266-77.15-346.19-117.79-156.61-117.79-156.61l-460.95,5.95S129.61,1294.07,149.93,1591.95Z"/><path d="M885.8,477.93S748.55,446.36,634,526.58c-91.57,64-86.62,211.86-86.62,211.86s0,148.72-150.8,185.4c-25.91,6.29,57.86,23.1,78.19,149.86l433.66-8.34s-114.48-234-80-353.87C865.24,583,885.8,477.93,885.8,477.93Z"/><path class="cls-3" d="M622.44,526.21c-51.68,35.69-65.77,108.22-31.48,162q.83,1.3,1.7,2.58c23.51,35.61,63.74,55.12,105.06,50.95,6.22-.38,9.47.9,11.21,7.53m36.15-31.76c-8.75-18.29-7.23-21.82,12.29-37.63l13.88,13.77Zm24.73-35.9c-2.68-3.09-5.42-6.1-8.24-9.33m.58-75.79a17.3,17.3,0,0,1,2.1,4.36c9.7,31.7-.46,66.35-25.52,87-.58.45-1.66,0-2.75.38-5.35-19-10.63-37.63-16.12-56.82-3-10.83-13.42-17.53-24.08-15.5-11.64,2.11-19.88,10.61-17.86,22.58,2.68,15.8,8,31.16,12.22,46.66l5.06,18.66c-28.49,9-70.14-19.12-83.8-55.16s4.63-79.47,40.42-99.12m-42.73,36.35c-14.89,32.14-10.41,62.31,10.34,90.31,7.23,10.08,7.74,10-1,18.66-2,2-4.12,3.76-6.15,5.57-29-28.93-39-72.88-25.6-112.29m100.22,145.1a103,103,0,0,1-63.41-21.9c-4.77-3.61-4-6.47-.87-10.16,8.6-9.93,9-9.78,20.1-2.71a70.29,70.29,0,0,0,44,13.47c8.32-.75,12.94,1.51,14.46,10.24q1.16,5.08,2.82,10c-6.58.15-11.86.83-17.21.83Zm38,45.16c-7.23-26.64-15.26-53.28-22.56-80-5.06-18.36-9.91-36.88-14.46-55.39a13,13,0,0,1,6.52-16.77,12,12,0,0,1,2.37-.76c8.1-1.58,12.44,3.46,14.46,10.69Q725.7,685,740.16,734"/><path class="cls-4" d="M607.33,463.52a152,152,0,0,1,16.34-9.41h0c59.15-33,121.62-47.56,186.84-53.06a12.07,12.07,0,0,0-8.32-3.09,431.5,431.5,0,0,0-150.83,35.67,280,280,0,0,0-84.67,55.54c-41.34,39.2-66.87,93.26-71.44,151.27-2.82,32.89-5.35,65.93-9.62,98.59-7.23,52.68-36.15,90.31-78.31,117.4a207.85,207.85,0,0,1-105.86,34.17,18.32,18.32,0,0,0-6.15,2.94l1.08,4.14c15.47-2.48,31.09-4.29,46.42-7.53a202.77,202.77,0,0,0,95.66-50.27,161.87,161.87,0,0,0,52.2-96.56c3.18-21.3,4.27-43,6.72-64.42a628.47,628.47,0,0,1,10.05-77.59c14.46-60.21,51.19-103.86,99.85-137.57C607.91,463.15,606.54,463.75,607.33,463.52Z"/><path class="cls-4" d="M793.3,313.38c-4.27,7.53-8,16-12.8,23.48-12.15,19.27-31,30.1-50,39.66-37.53,19.19-77.87,26.64-119.3,30.1-28.2,2.63-56.9,3.61-83.59,15.8a96.21,96.21,0,0,0-40.13,32.36,75.67,75.67,0,0,1-54.23,32.81c-57.34,7.53-109.25-6.32-153.36-46.43a128.1,128.1,0,0,1-40.92-85c-4.63-44.55-1.16-87.75,18-128.69a189.13,189.13,0,0,1,79-85.64c39.55-22.58,82.57-33.11,127-38.46a397.76,397.76,0,0,1,154.81,9.78C677.61,129.67,730.32,159.1,768.43,212c17.71,24.53,28.92,51.78,26,83.39M588.75,394.89c17.79-1.35,35.5-3.61,53.22-5.49a235.93,235.93,0,0,0,103.4-37c24.29-15.65,38.76-37.63,37.24-68.26S766.33,228,746.45,205.91C699.88,154,640.16,129.52,574.58,119.06A401.57,401.57,0,0,0,437.2,122c-39.41,7.53-77.22,19.27-110.56,43-33.93,23.24-58.63,58.47-69.56,99.19a253.51,253.51,0,0,0-5.28,93.09,108.11,108.11,0,0,0,27.55,64.57C318.83,464.5,368,480.76,424,476.09a72.32,72.32,0,0,0,55.46-31.31,103.51,103.51,0,0,1,60.16-40.11c11.28-3,22.78-5.27,34.63-8"/><path class="cls-4" d="M688.24,1150.63H478.55c-16.56,0-21.69-3.54-26.9-18.29a31.69,31.69,0,0,1,8.46-35,37.46,37.46,0,0,1,20.32-5.72c57.84-.45,115.69,0,173.53,0h242.8c11.71,0,21.69,3.16,26.54,15.65a32.71,32.71,0,0,1-6.07,37.63,29.71,29.71,0,0,1-18,6c-66.23.38-132.39,0-198.62,0Zm9.11-50.95H537.85c-11.13,0-15.69,4.36-16.63,16a63.57,63.57,0,0,0,0,10.84c-.33,8.51,6,15.69,14.22,16a14.25,14.25,0,0,0,2.78-.16h317.2c12.36,0,18.37-7.53,18.29-21.67s-5.93-20.92-17.86-20.92Zm-179.53,0c-13.3,0-26.54.38-39.77,0a16.82,16.82,0,0,0-18.73,10.84,25.46,25.46,0,0,0,4,28.3,15.23,15.23,0,0,0,9.54,4.74c15.33.53,30.66,0,46.64,0-6.29-16.18-6.29-16.18-1.74-44.18Zm356.83,0a41.56,41.56,0,0,1-1.37,44H901.4a13.92,13.92,0,0,0,15.11-10.84,46.94,46.94,0,0,0,0-22.58,17.31,17.31,0,0,0-11.71-10,189.6,189.6,0,0,0-30.22-.75Z"/><path class="cls-4" d="M390.92,840.72c7.23-8.5,15.47-15.05,18.37-23.71a80.61,80.61,0,0,0,.65-30.1c-.72-9.56,4-20-3.69-28.45s-13.52-14.52-20.32-21.82l-3.18,1.58c1.3,3.91,1.52,9.48,4.12,11.44,16.49,12.19,19.38,29,17.21,48.17-.65,5.64.43,11.51,0,17.08a21.57,21.57,0,0,1-5.35,10.31c5.64-13.09.72-26.79,2.68-39.74,2.39-15.05-5.86-23.86-16.05-31.76L383,754.85a31.31,31.31,0,0,0,5.21,9.71,23,23,0,0,1,8.53,21.07,162.59,162.59,0,0,0,0,24.38,15.59,15.59,0,0,1-10.41,16.33c13.88-14.07,6.15-31.68,7.23-47.71,0-4.21-4.56-8.81-7.23-13.25l-2.6.6a84.09,84.09,0,0,0-1.23,9.11c-.51,19-.72,37.63-1.3,56.82a38.24,38.24,0,0,1-2,7.9l-3.47-.68V828.6c.72-40,1.37-80,2.46-120a12,12,0,0,0-8.68-14C356.16,688.5,348.2,674,349.92,659c.74-13.88,9.62-25.85,22.34-30.1,7.59-1.73,9.18-5.49,8.75-12.49s.72-12.79,0-18.89a23.81,23.81,0,0,1,12.8-26.11c17.93-11.66,35.14-24.53,52.86-36.73a17,17,0,0,1,6.65-1.2c-1.08,2-1.59,4.82-3.25,6-18.8,13.62-37.6,27.24-56.76,40.41A13.46,13.46,0,0,0,386.58,593c.51,9,0,18.06.36,27a10.36,10.36,0,0,0,5.28,7.53C409.5,633.83,418,644.82,418,662.13c.56,16.94-10.78,31.79-26.75,35.07-6,1.73-6.58,4.52-7.23,9.78a35.15,35.15,0,0,0,13.67,36.73c12.86,8.65,19.2,24.7,15.91,40.26a50.17,50.17,0,0,0,0,17.08c3.9,18.44-7.23,28.6-18.51,39C394.39,840.57,393.38,840.42,390.92,840.72Zm-6.36-207.94c-15.64-.72-28.87,11.9-29.56,28.18v.27c-.6,16.61,11.84,30.59,27.81,31.22h.32c15.67.3,28.73-12.45,29.43-28.75.88-16.14-11-30-26.49-30.88Q385.3,632.78,384.56,632.78Z"/><g class="cls-5"><path class="cls-1" d="M152.82,730c-3.54,4.21-5.06,6-6.58,7.53-9.54,10.61-9.54,17.84.36,28.52a43.11,43.11,0,0,0,9.76,8.5,17.92,17.92,0,0,1,9.33,20.85c-3.11,10,2.2,20.82,11.85,24.06l.08,0a28.41,28.41,0,0,1,16.63,27.7c.8,20.7,1.66,41.39,2,62.16,0,7.53,1.66,12.42,9.47,13.4a446.46,446.46,0,0,0,60.74,7.53,582.55,582.55,0,0,0,76.5-7.53,230.89,230.89,0,0,0,98.84-39.28,181.33,181.33,0,0,0,69.2-91.06c11.86-33.57,13.38-68.49,12.73-103.93a288.56,288.56,0,0,1,4.34-61c11.06-55.39,41.43-97.84,86.77-128.32a365.79,365.79,0,0,1,136.08-54,516.67,516.67,0,0,1,140.27-10.61C889.68,392.63,870.52,326.4,855.92,287c-4.41-11.82-17.21-38.08-21.69-50a348.48,348.48,0,0,0-90.16-110.78c-7.23-6.17-9-5.64-14.46,3.39a14.1,14.1,0,0,0,1.66,1.81,341.71,341.71,0,0,1,96.89,118.76,388.56,388.56,0,0,1,38.9,158c.51,10.91-1.52,13.32-11.86,13.32a524.88,524.88,0,0,0-118.44,13.85A375.36,375.36,0,0,0,640.16,470c-1.66.9,1.45.6,0,0-1.81,1.2-10.63,5.19-12.58,6.1h0l-16.7,11.06c-65.08,43.27-97.54,105.36-99.28,185.06-.43,20.17.87,40.41-.36,60.21a185.28,185.28,0,0,1-34.49,100.09c-27.91,38.16-66.16,59.6-109.76,72.17a328.6,328.6,0,0,1-91.39,12.79c-6.72,0-9.33-2-8.89-9.26a117.45,117.45,0,0,0,0-27,73,73,0,0,0-9.11-25.51,51.81,51.81,0,0,0-37-22.13c-9.18-1.73-18.73-2-22.56-14.07-1.08-3.39-6.22-6-10-7.53-7.66-3.54-12.73-8-9.83-17.76a17.29,17.29,0,0,0,0-7.53c-.8-5.27,1.74-7.53,6.29-7.53,9.83,0,19.67,0,29.43.75,7.23,0,14.46,1,21.69,1.43l1.23-3.16c-2-1.43-4-3.84-6.22-4.06a294.83,294.83,0,0,0-44-3,35.74,35.74,0,0,1-26-9c-10.56-8.58-10.63-10.54-1.37-20.92,4.12-4.59,10.05-9.93,5.93-16.18a24.2,24.2,0,0,0-14.89-8.58c-18.22-3.24-46.49-8.73-64.5-11.14.94.68-3.33,3.39-1.16,4.14"/><path class="cls-1" d="M242.69,916.65c-10.27-1.05-20.46-2.63-30.51-4.67a7.53,7.53,0,0,1-3.69-5.57V852.83c16.49-2.26,35.57,11.44,37.6,27.85a236.78,236.78,0,0,1,1.3,30.1C247.18,913,244.07,916.8,242.69,916.65Z"/><path class="cls-1" d="M259,911.46c0,2-2.39,3.91-3.69,5.79-1.3-1.88-3.69-3.76-3.76-5.72-.43-7.53,0-15.58,0-23.41,0-17.65-11.46-33.07-27.84-37.63-4-1.35-8.39-2.11-12.36-3.69a20.32,20.32,0,0,1-5-4.36c1.88-.68,3.9-2.11,5.64-1.81,28.92,4.52,49.67,18.81,47.43,53.81v2.71A128.31,128.31,0,0,1,259,911.46Z"/><path class="cls-1" d="M96.85,715c-30.08-8-27.26-25.06-19.67-37.63,13.16-21.67,27.33-42.67,41.21-63.89,14.46-22.58,31.67-53.13,46.42-75.26.94-1.43-.87-20.47,0-21.82,7.23-14.15,25.23,1.58,28.05.6,0,3.24-16.77,29.5-18.08,31.76-7.66,12.94-16,25.44-24.22,38-20.68,31.53-41.65,62.92-61.89,94.75-2.82,4.44,13.23,27.09,24.87,29.12C117.89,711.35,107,717.44,96.85,715Z"/><path class="cls-1" d="M729.6,129.45A420.81,420.81,0,0,0,629,75.26,386.49,386.49,0,0,0,466,54,343.82,343.82,0,0,0,311.6,104.39c-55.67,33.37-100.62,83.12-129.21,143C152.46,310,146.24,376.07,155.28,444c2.6,20.47,10.92,40.11,17.14,60.21a10.51,10.51,0,0,0,7.23,5.34c7.23,1.05,14.46.9,21.69,1.28,36.15,1.88,72.31,3.61,108.46,5.87,3.11,0,6,3.31,9,5a29.67,29.67,0,0,1-5.42,8,60.16,60.16,0,0,1-13.74,7.53c-7.74,3-10,8.13-11,16.78-3.33,27.62,3.83,49.67,26.25,65.85,14.46,10.69,18.29,25.59,17.93,44.25-1.16,60.73-.43,121.54-.51,182.35a87.06,87.06,0,0,1-1.3,10.61h-3.47a100.22,100.22,0,0,1-1.08-10.46q0-98.44,0-196.8a19.72,19.72,0,0,0-6.36-15.65c-11.06-10.69-21.69-21.75-32.1-33.34a25,25,0,0,1-5.35-14.07c-.72-12.57,0-25.14,0-40.11L253,561.73c-5.21,2.63-10.41,5.12-15.62,7.53s-9.18.83-10.48-5.12a223.83,223.83,0,0,1-5.5-30.86c-.51-7.15-2.68-9.18-9.11-9.41-12.73-.38-25.38-2-38-2.18a10.74,10.74,0,0,1-10.77-6.92A217.43,217.43,0,0,1,141.83,432a698.12,698.12,0,0,1,0-79.4,299.93,299.93,0,0,1,27.77-106.11c29-63.32,75.66-116.07,133.91-151.34C360,63.52,391.57,52,424,47.87A380.11,380.11,0,0,1,560.4,45.16,363.27,363.27,0,0,1,699.74,95.73c10.27,6.55,35.72,20.92,44.4,30.1C743.41,126.81,730.4,128.7,729.6,129.45Zm-494.86,429L287,530.5a337.74,337.74,0,0,0-51.19-5c-1.59,0-4.84,4.29-4.7,6.4.65,8.2,2.46,16.63,3.69,26.19Z"/></g><path class="cls-4" d="M920.49,245.72"/><path class="cls-4" d="M948.61,245.72"/><path class="cls-4" d="M208.28,852.76c16.49-2.26,35.57,11.44,37.6,27.85a236.78,236.78,0,0,1,1.3,30.1c0,2-3.11,5.72-4.56,5.57-10.27-1.05-20.46-2.63-30.51-4.67a7.53,7.53,0,0,1-3.69-5.57C208.13,888.73,208.28,871,208.28,852.76Z"/><path class="cls-4" d="M259.18,897.09a126.16,126.16,0,0,1,0,14.37c0,2-2.39,3.91-3.69,5.79-1.3-1.88-3.69-3.76-3.76-5.72-.43-7.53,0-15.58,0-23.41,0-17.65-11.46-33.07-27.84-37.63-4-1.35-8.39-2.11-12.36-3.69a20.32,20.32,0,0,1-5-4.36c1.88-.68,3.9-2.11,5.64-1.81,28.92,4.52,49.67,18.81,47.43,53.81A5.19,5.19,0,0,0,259.18,897.09Z"/><path class="cls-4" d="M234.81,558.12c-1.37-9.48-3-17.91-3.54-26.49,0-2.11,3.11-6.47,4.7-6.4a337.74,337.74,0,0,1,51.19,5Z"/><path class="cls-4" d="M826.49,1505.85c-68.57,0-124.18-57.78-124.22-129.14h0c-.24-71.49,55.25-129.65,123.93-129.9h.29c68.5.12,124,57.92,124.08,129.22.36,71.32-54.9,129.44-123.42,129.82Zm.51-249.71c-63.12-2-116.05,53.13-116.7,119.44-.32,67.08,51.67,121.74,116.12,122.07h.08c63.95-.16,115.86-53.86,116.41-120.41-.07-66.75-52.71-122.6-115.83-121.09Z"/><path class="cls-4" d="M407.12,662.28c1.45,13-11.5,24.68-23.28,24.76-12.86-.54-23.16-11.29-23.64-24.68-.29-13,9.57-23.72,22-24q.74,0,1.47,0c11.94-1,22.41,8.22,23.4,20.65A23.48,23.48,0,0,1,407.12,662.28ZM402,657c-1.16-10.24-10.07-17.56-19.9-16.36l-.7.1c-10.29,1.73-17.94,10.83-18.22,21.67.72,11.16,9.17,20.09,19.88,21,9.17,1.08,17.44-5.78,18.47-15.32q0-.2,0-.4c-6.65,0-13.3.45-19.88,0-2.46,0-4.7-2.94-7.23-4.52,2.24-2,4.41-5.34,6.87-5.64a173.13,173.13,0,0,1,20.68-.45Zm-24.08,4.06a19.13,19.13,0,0,0,24.37,0Z"/><path class="cls-6" d="M875.08,465.63s-133.4-31.83-244.68,49.22C541.46,579.57,546.23,729,546.23,729s0,150.52-146.49,187.47c-25.16,6.4,56.18,23.33,76,151.5L897,1059.57S785.78,823,819.26,701.79C855.41,572,875.08,465.63,875.08,465.63Z"/><path d="M421.17,41.37s133-16.23,235.36,30.39c175.58,80,253.47,335.46,230.75,344s-224,3.29-324,112C505.12,591,513.82,749.6,513.82,749.6s-9.58,139.86-195.25,153.9-133.68-75.89-133.68-75.89L155,797l-3.32-30.68-27.49-22.76,4.26-9.78,14.22-18.13-18.34.92L66.27,686.6a18,18,0,0,1-6.77-25.91l91-137.55S58,282.62,261.19,117.42C344.14,50,421.17,41.37,421.17,41.37Z"/><path class="cls-7" d="M141.54,1591.95l983.36-2.86s-23.07-266-77.15-346.19S930,1086.29,930,1086.29L469,1092.23S121.22,1294.07,141.54,1591.95Z"/><path d="M132.67,1593.65l1012.27-1.71s-23.72-264.27-79.41-343.23-121.27-154.88-121.27-154.88l-474.47,5.91S111.76,1299,132.67,1593.65Z"/><path class="cls-8" d="M1116.72,1373c15.5,69.94,28.63,147.13,28.22,218.9H1109a154.41,154.41,0,0,1,1.18-23A718.33,718.33,0,0,0,1098.07,1404c-6.29-30.78-15.69-60.88-23.5-91.29a10.78,10.78,0,0,0-12.07-9.5q-.44.06-.87.16c-9.33.6-372.3,3.39-381.63,2.48-2.82,0-5.28-4.06-7.88-6.25,2.68-1.58,5.35-4.36,8.1-4.52,10-.53,373.6-3.24,387.27-3.24-9-19.42-16.05-36.43-24.58-52.68-28.92-54.64-112.22-155-112.22-155h0c9.18,6.32-8.24-7.53,0,0,49.82,47,136.3,147.84,162.19,212.79"/><path class="cls-9" d="M602.7,819.87H582.31v-6.55a13.27,13.27,0,0,0-.8-5.79,2.85,2.85,0,0,0-2.6-1.28,3.29,3.29,0,0,0-3,1.66,10.13,10.13,0,0,0-1,5.12,15,15,0,0,0,1.16,6.62,16.72,16.72,0,0,0,6.22,5.34A63.18,63.18,0,0,1,600.75,840a35.25,35.25,0,0,1,3.83,18.74,34.11,34.11,0,0,1-2.1,13.85,16.79,16.79,0,0,1-8.17,7.53,31.24,31.24,0,0,1-14.1,3,30.5,30.5,0,0,1-15-3.46,16.73,16.73,0,0,1-8.17-8.88,46.88,46.88,0,0,1-2-15.05V850h20.39v10.69a14.6,14.6,0,0,0,.87,6.32,3.27,3.27,0,0,0,3,1.43,3.58,3.58,0,0,0,3.25-1.81,10.59,10.59,0,0,0,1.08-5.34,17,17,0,0,0-2-10.16,65.36,65.36,0,0,0-10.27-8,101.11,101.11,0,0,1-10.85-8.2,19.29,19.29,0,0,1-4.41-7.07,32.16,32.16,0,0,1-1.74-11.51,33.07,33.07,0,0,1,2.46-15.05,16.88,16.88,0,0,1,8-7.53,30.87,30.87,0,0,1,13.38-2.63A33.66,33.66,0,0,1,592.73,794a15.5,15.5,0,0,1,8,7.53,39.92,39.92,0,0,1,2,15.05Z"/><path class="cls-9" d="M661.63,844.71q0,13.25-.58,18.74a21.5,21.5,0,0,1-3.76,10.08,20.4,20.4,0,0,1-8.53,7A30,30,0,0,1,636.25,883,30.73,30.73,0,0,1,624,880.53a20.15,20.15,0,0,1-8.68-6.92,21.33,21.33,0,0,1-3.9-10.08q-.79-9.5-.65-19V829.43q0-13.25.58-18.74a21.5,21.5,0,0,1,3.76-10.08,20.4,20.4,0,0,1,8.53-7,30,30,0,0,1,12.51-2.41,30.71,30.71,0,0,1,12.22,2.33,20.15,20.15,0,0,1,8.68,6.92,21.33,21.33,0,0,1,3.9,10.08q.79,9.5.65,19Zm-21.69-28.9a28.39,28.39,0,0,0-.65-7.53,2.6,2.6,0,0,0-2.68-1.73,2.93,2.93,0,0,0-2.6,1.35,20.32,20.32,0,0,0-.94,8.2V857.2a42,42,0,0,0,.58,9.48,2.6,2.6,0,0,0,2.82,1.81,2.68,2.68,0,0,0,2.89-2,45.31,45.31,0,0,0,.65-9.86Z"/><path class="cls-9" d="M669.8,793.23H707v17.61H691.78v17h13.59v16.71H691.78v37H670.09Z"/><path class="cls-9" d="M756.64,793.23v17.61h-13v70.37H721.94V810.84h-13V793.23Z"/><path class="cls-9" d="M602.7,953.38H582.31v-6.55a13.27,13.27,0,0,0-.8-5.79,2.85,2.85,0,0,0-2.6-1.28,3.29,3.29,0,0,0-3,1.66,10.13,10.13,0,0,0-1,5.12,15,15,0,0,0,1.16,6.62,16.72,16.72,0,0,0,6.22,5.34,63.18,63.18,0,0,1,18.51,15.05,35.25,35.25,0,0,1,3.83,18.74,34.11,34.11,0,0,1-2.1,13.85,16.79,16.79,0,0,1-8.17,7.53,31.24,31.24,0,0,1-14.1,3,30.5,30.5,0,0,1-15-3.46,16.73,16.73,0,0,1-8.17-8.88,46.88,46.88,0,0,1-2-15.05v-5.79h20.39v10.69a14.6,14.6,0,0,0,.87,6.32,3.27,3.27,0,0,0,3,1.43,3.58,3.58,0,0,0,3.25-1.81,10.59,10.59,0,0,0,1.08-5.34,17,17,0,0,0-2-10.16,65.36,65.36,0,0,0-10.27-8,101.11,101.11,0,0,1-10.85-8.2,19.29,19.29,0,0,1-4.41-7.07,32.16,32.16,0,0,1-1.74-11.51,33.07,33.07,0,0,1,2.46-15.05,16.88,16.88,0,0,1,8-7.53,30.87,30.87,0,0,1,13.38-2.63,33.66,33.66,0,0,1,14.46,2.86,15.5,15.5,0,0,1,8,7.53,39.92,39.92,0,0,1,2,15.05Z"/><path class="cls-9" d="M663.8,926.74l-12.58,39.74L665,1014.71h-22.7l-8.89-37.63v37.63H611.74v-88h21.69V960.9l9.76-34.17Z"/><path class="cls-9" d="M690.77,926.74v88H669.08v-88Z"/><path class="cls-9" d="M721.57,926.74V997.1H735v17.61H699.59v-88Z"/><path class="cls-9" d="M762.21,926.74V997.1h13.67v17.61H740.52v-88Z"/><path class="cls-9" d="M826.49,953.38H806.1v-6.55a13.27,13.27,0,0,0-.8-5.79,2.85,2.85,0,0,0-2.6-1.28,3.29,3.29,0,0,0-3,1.66,10.13,10.13,0,0,0-1,5.12,15,15,0,0,0,1.16,6.62A16.72,16.72,0,0,0,806,958.5a63.18,63.18,0,0,1,18.51,15.05,35.25,35.25,0,0,1,3.83,18.74,34.11,34.11,0,0,1-2.1,13.85,16.79,16.79,0,0,1-8.17,7.53,31.24,31.24,0,0,1-14.1,3,30.5,30.5,0,0,1-15-3.46,16.73,16.73,0,0,1-8.17-8.88,46.88,46.88,0,0,1-2-15.05v-5.79h20.39v10.69a14.6,14.6,0,0,0,.87,6.32,3.27,3.27,0,0,0,3,1.43,3.58,3.58,0,0,0,3.25-1.81,10.59,10.59,0,0,0,1.08-5.34,17,17,0,0,0-2-10.16,65.36,65.36,0,0,0-10.27-8,101.11,101.11,0,0,1-10.85-8.2,19.29,19.29,0,0,1-4.41-7.07,32.16,32.16,0,0,1-1.74-11.51,33.07,33.07,0,0,1,2.46-15.05,16.88,16.88,0,0,1,8-7.53A30.87,30.87,0,0,1,802,924.63a33.66,33.66,0,0,1,14.46,2.86,15.5,15.5,0,0,1,8,7.53,39.92,39.92,0,0,1,2,15.05Z"/><path class="cls-10" d="M420.2,139.68v97H396v-41h-7.23v40.71H364.53V139.68h24.22v34.69H396V139.68Z"/><path class="cls-10" d="M472.19,139.68l13.88,97h-24.8L460,219.23H451.3l-1.45,17.46H424.76l12.36-97Zm-12.87,62.39q-1.81-16.48-3.69-40.71-3.69,27.85-4.63,40.71Z"/><path class="cls-10" d="M489.83,139.68H507A126.08,126.08,0,0,1,530.18,141a16,16,0,0,1,9.91,7.07,33.06,33.06,0,0,1,3.83,18.06,29.22,29.22,0,0,1-2.68,15.05,14.19,14.19,0,0,1-10.63,4.67,18,18,0,0,1,9.69,5,15.22,15.22,0,0,1,3.11,5.72A93.93,93.93,0,0,1,544,211v25.59H521.51V204.33a23.44,23.44,0,0,0-1.16-9.63q-1.16-1.88-6.22-1.88v43.73H489.91Zm24.22,16.63v21.6a10.35,10.35,0,0,0,5.71-1.2q1.66-1.2,1.66-7.53v-5.34a8.29,8.29,0,0,0-1.59-6A8.7,8.7,0,0,0,514.06,156.32Z"/><path class="cls-10" d="M553.32,139.68h18.15a108.6,108.6,0,0,1,23.72,1.66,18,18,0,0,1,9.4,5.49,17.74,17.74,0,0,1,4,8.5,134.4,134.4,0,0,1,.8,18.51v33.94a82,82,0,0,1-1.16,17.46,13.19,13.19,0,0,1-4.12,6.92,16.84,16.84,0,0,1-7.23,3.46,63.13,63.13,0,0,1-13,1H553.32Zm24.22,16.63v63.82q5.21,0,6.44-2.18a33.15,33.15,0,0,0,1.23-11.89V168.43a52.75,52.75,0,0,0-.43-8.43,4,4,0,0,0-1.81-2.71,11.52,11.52,0,0,0-5.42-1Z"/><path class="cls-10" d="M415.87,316.09H393.38v-7.53a14.61,14.61,0,0,0-.87-6.4,3.13,3.13,0,0,0-2.89-1.35,3.66,3.66,0,0,0-3.33,1.88,11.13,11.13,0,0,0-1.16,5.64,16.54,16.54,0,0,0,1.23,7.53,18.49,18.49,0,0,0,6.87,5.95,69.55,69.55,0,0,1,20.39,16.41,38.92,38.92,0,0,1,4.19,20.7A37.53,37.53,0,0,1,415.5,374a18.46,18.46,0,0,1-9,8.2,34.45,34.45,0,0,1-15.55,3.31,33.65,33.65,0,0,1-16.63-3.84,18.5,18.5,0,0,1-9-9.78,52,52,0,0,1-2.1-16.86v-6.32h22.27v12.57a16.16,16.16,0,0,0,.94,7,3.63,3.63,0,0,0,3.4,1.58,3.94,3.94,0,0,0,3.62-2,11.68,11.68,0,0,0,1.16-5.87,18.83,18.83,0,0,0-2.24-11.21A71.65,71.65,0,0,0,380.94,342a111.82,111.82,0,0,1-12-9,21.29,21.29,0,0,1-4.84-7.53,35.59,35.59,0,0,1-2-12.72,36.57,36.57,0,0,1,2.75-16.33,18.69,18.69,0,0,1,8.82-8.05,34.08,34.08,0,0,1,14.46-2.94,37.08,37.08,0,0,1,16.12,3.16,17.07,17.07,0,0,1,8.82,8,44,44,0,0,1,2.17,16.41Z"/><path class="cls-10" d="M483.25,287l-13.88,43.8L484.63,384h-25l-9.83-41.62v41.47H425.56V287h24.22v37.63L460.55,287Z"/><path class="cls-10" d="M513,287v96.86H488.75V287Z"/><path class="cls-10" d="M547,287v77.59h14.46v19.27H522.81V287Z"/><path class="cls-10" d="M591.79,287v77.59h14.46v19.27h-39V287Z"/><path class="cls-10" d="M662.93,316.09H640.45v-7.53a14.61,14.61,0,0,0-.87-6.4,3.13,3.13,0,0,0-2.89-1.35,3.66,3.66,0,0,0-3.33,1.88,11.13,11.13,0,0,0-1.16,5.64,16.54,16.54,0,0,0,1.23,7.53,18.49,18.49,0,0,0,6.87,5.95,69.55,69.55,0,0,1,20.39,16.41,38.92,38.92,0,0,1,4.19,20.7A37.53,37.53,0,0,1,662.57,374a18.46,18.46,0,0,1-9,8.2A34.45,34.45,0,0,1,638,385.48a33.65,33.65,0,0,1-16.63-3.84,18.5,18.5,0,0,1-9-9.78,52,52,0,0,1-2.1-16.86v-6.32h22.49v12.57a16.16,16.16,0,0,0,.94,7,3.63,3.63,0,0,0,3.4,1.58,3.94,3.94,0,0,0,3.62-2,11.68,11.68,0,0,0,1.16-5.87,18.83,18.83,0,0,0-2.24-11.21A71.65,71.65,0,0,0,628.23,342a111.82,111.82,0,0,1-12-9,21.29,21.29,0,0,1-4.84-7.53,35.59,35.59,0,0,1-2-12.72,36.57,36.57,0,0,1,2.75-16.33,18.69,18.69,0,0,1,8.82-8.05,34.08,34.08,0,0,1,14.46-2.94,37.08,37.08,0,0,1,16.12,3.16,17.07,17.07,0,0,1,8.82,8,44,44,0,0,1,2.17,16.41Z"/><path class="cls-10" d="M400.68,1392.29q0,13.25-.58,18.74a21.5,21.5,0,0,1-3.76,10.08,20.4,20.4,0,0,1-8.53,7,30,30,0,0,1-12.51,2.48,30.71,30.71,0,0,1-12.22-2.33,20.15,20.15,0,0,1-8.68-6.92,21.33,21.33,0,0,1-3.9-10.08q-.79-9.5-.65-19v-15.05q0-13.25.58-18.74a21.5,21.5,0,0,1,3.76-10.08,20.4,20.4,0,0,1,8.53-7,30,30,0,0,1,12.51-2.41,30.71,30.71,0,0,1,12.22,2.33,20.15,20.15,0,0,1,8.68,6.92,21.33,21.33,0,0,1,3.9,10.08q.79,9.5.65,19ZM379,1363.39a28.39,28.39,0,0,0-.65-7.53,2.6,2.6,0,0,0-2.68-1.73,2.93,2.93,0,0,0-2.6,1.35,20.32,20.32,0,0,0-.94,8.2v41.09a42,42,0,0,0,.58,9.48,2.6,2.6,0,0,0,2.82,1.81,2.68,2.68,0,0,0,2.89-2,45.31,45.31,0,0,0,.65-9.86Z"/><path class="cls-10" d="M453.1,1341.11v17.61h-13v70.37H418.4v-70.37h-13v-17.61Z"/><path class="cls-10" d="M508.34,1341.11v88H486.65v-36.8h-6.58v37H458.38v-88.13h21.69v31.46h6.58v-31.46Z"/><path class="cls-10" d="M517.46,1341.11h36.66v17.61H539.65v16.71h13.74v16.86H539.65v19.34h16.12v17.61H517.67Z"/><path class="cls-10" d="M561.85,1341.11H577.4a114.55,114.55,0,0,1,21,1.28,14.47,14.47,0,0,1,9,6.4,30,30,0,0,1,3.47,16.41,26.49,26.49,0,0,1-2.46,13.77,12.63,12.63,0,0,1-9.69,4.21,16.32,16.32,0,0,1,8.75,4.52,13.7,13.7,0,0,1,2.82,5.19,85.61,85.61,0,0,1,.58,13v23.18H590.48v-29.28a20.93,20.93,0,0,0-1.08-8.73q-1.08-1.66-5.64-1.66v39.66H562.07Zm21.69,15.05v19.57a9.36,9.36,0,0,0,5.21-1.05q1.52-1.05,1.52-6.85V1363a7.75,7.75,0,0,0-1.45-5.49,7.93,7.93,0,0,0-5-1.35Z"/><path class="cls-10" d="M666,1367.75H645.73v-6.55a13.27,13.27,0,0,0-.8-5.79,2.85,2.85,0,0,0-2.6-1.28,3.29,3.29,0,0,0-3,1.66,10.13,10.13,0,0,0-1,5.12,15,15,0,0,0,1.16,6.62,16.72,16.72,0,0,0,6.22,5.34,63.18,63.18,0,0,1,18.51,15.05,35.25,35.25,0,0,1,3.83,18.74,34.11,34.11,0,0,1-2.1,13.85,16.79,16.79,0,0,1-8.17,7.53,31.24,31.24,0,0,1-14.1,3,30.5,30.5,0,0,1-15-3.46,16.73,16.73,0,0,1-8.17-8.88,46.88,46.88,0,0,1-2-15.05v-5.79h20v10.69a14.6,14.6,0,0,0,.87,6.32,3.27,3.27,0,0,0,3,1.43,3.58,3.58,0,0,0,3.25-1.81,10.59,10.59,0,0,0,1.08-5.34,17,17,0,0,0-2-10.16,65.36,65.36,0,0,0-10.27-8,101.11,101.11,0,0,1-10.85-8.2,19.29,19.29,0,0,1-4.41-7.07,32.16,32.16,0,0,1-1.74-11.51,33.07,33.07,0,0,1,2.46-15.05,16.88,16.88,0,0,1,8-7.53,30.87,30.87,0,0,1,13.38-2.63,33.66,33.66,0,0,1,14.46,2.86,15.5,15.5,0,0,1,8,7.53,39.92,39.92,0,0,1,2,15.05Z"/><path class="cls-11" d="M672.77,1280.15H359.47c-24.66,0-32.39-5.27-40.13-27.32-6.36-18.06-2.1-42,12.58-52.3a56.12,56.12,0,0,1,30.3-8.5c86.33-.68,172.67,0,258.93,0H983.68c17.5,0,32.32,4.67,39.62,23.41,8.1,20.55,5.78,43-9,55.69a44.28,44.28,0,0,1-26.9,9c-98.84.6-197.68,0-296.45,0Zm13.67-76.09H448.26c-16.63,0-23.43,6.47-24.87,23.78a94.91,94.91,0,0,0,0,16.11c1.45,16.33,9.4,23.71,25.38,23.71H922.51c18.51,0,27.4-10.69,27.26-32.44S940.95,1204,923.16,1204Zm-268.11-.45c-19.88,0-39.62.6-59.29,0-13-.53-22.92,3.24-27.91,16.18-5.86,15.05-5.57,30.1,5.93,42.3a22.7,22.7,0,0,0,14.46,7.07c22.92.75,45.84,0,69.56,0-9.62-23.71-9.62-23.71-2.75-65.47Zm532.75,0a62.27,62.27,0,0,1-2,65.55c16.34,0,28.92-.53,42,0,10.37,1.31,20-5.63,22.56-16.18a70.41,70.41,0,0,0-.43-33.87,25.8,25.8,0,0,0-17.43-15.05,283.06,283.06,0,0,0-44.68.08Z"/><path class="cls-12" d="M158.6,730c-3.54,4.21-5.06,6-6.58,7.53-9.54,10.61-9.54,17.84.36,28.52a43.11,43.11,0,0,0,9.76,8.5,17.92,17.92,0,0,1,9.33,20.85c-3.11,10,2.2,20.82,11.85,24.06l.08,0A28.41,28.41,0,0,1,200,847.19c.8,20.7,1.66,41.39,2,62.16,0,7.53,1.66,12.42,9.47,13.4a446.46,446.46,0,0,0,60.74,7.53,582.55,582.55,0,0,0,76.5-7.53,230.89,230.89,0,0,0,98.84-39.28,181.33,181.33,0,0,0,69.2-91.06c11.86-33.57,13.38-68.49,12.73-103.93a288.56,288.56,0,0,1,4.34-61c11.06-55.39,41.43-97.84,86.77-128.32a365.79,365.79,0,0,1,136.08-54,516.67,516.67,0,0,1,140.27-10.61C895.47,392.63,876.31,326.4,861.7,287,857.29,275.22,844.49,249,840,237a348.48,348.48,0,0,0-90.16-110.78c-7.23-6.17-9-5.64-14.46,3.39a14.1,14.1,0,0,0,1.66,1.81,341.74,341.74,0,0,1,96.67,118.68,388.56,388.56,0,0,1,38.9,158c.51,10.91-1.52,13.32-11.86,13.32A524.88,524.88,0,0,0,742.33,435.3a375.36,375.36,0,0,0-96.6,34.62c-1.66.9,1.45.6,0,0-1.81,1.2-10.63,5.19-12.58,6.1h0l-16.7,11.06c-65.08,43.27-97.54,105.36-99.28,185.06-.43,20.17.87,40.41-.36,60.21a185.28,185.28,0,0,1-34.49,100.09c-27.91,38.16-66.16,59.6-109.76,72.17a328.6,328.6,0,0,1-91.39,12.79c-6.72,0-9.33-2-8.89-9.26a117.45,117.45,0,0,0,0-27,73,73,0,0,0-9.11-25.51,51.81,51.81,0,0,0-37-22.13c-9.18-1.73-18.73-2-22.56-14.07-1.08-3.39-6.22-6-10-7.53-7.66-3.54-12.73-8-9.83-17.76a17.29,17.29,0,0,0,0-7.53c-.8-5.27,1.74-7.53,6.29-7.53,9.83,0,19.67,0,29.43.75,7.23,0,14.46,1,21.69,1.43l1.23-3.16c-2-1.43-4-3.84-6.22-4.06a294.83,294.83,0,0,0-44-3,35.74,35.74,0,0,1-26-9c-10.56-8.58-10.63-10.54-1.37-20.92,4.12-4.59,10.05-9.93,5.93-16.18a24.2,24.2,0,0,0-14.89-8.58c-18.22-3.24-46.49-8.73-64.5-11.14.94.68-3.33,3.39-1.16,4.14"/><path class="cls-1" d="M96.85,715c-30.08-8-27.26-25.06-19.67-37.63,13.16-21.67,27.33-42.67,41.21-63.89,14.46-22.58,31.67-53.13,46.42-75.26.94-1.43-.19-31.59.68-32.95,7.23-14.15,30.51,9.31,33.33,8.33,0,3.24-22.73,32.89-24,35.15-7.66,12.94-16,25.44-24.22,38-20.68,31.53-41.65,62.92-61.89,94.75-2.82,4.44,13.23,27.09,24.87,29.12C117.89,711.35,107,717.44,96.85,715Z"/><path class="cls-1" d="M729.6,115.83A418.45,418.45,0,0,0,629,60.66,380.06,380.06,0,0,0,466,39,339.59,339.59,0,0,0,311.6,90.31C255.93,124.29,211,175,182.39,235.92c-29.93,63.76-36.15,131-27.11,200.24,2.6,20.84,10.92,40.85,17.14,61.31a10.53,10.53,0,0,0,7.23,5.44c7.23,1.07,14.46.92,21.69,1.3,36.15,1.92,72.31,3.68,108.46,6,3.11,0,6,3.37,9,5.13a30.25,30.25,0,0,1-5.42,8.12,59.84,59.84,0,0,1-13.74,7.66c-7.74,3.07-10,8.28-11,17.09-3.33,28.12,3.83,50.58,26.25,67.05,14.46,10.88,18.29,26.06,17.93,45.06-1.16,61.84-.43,123.76-.51,185.68a90.19,90.19,0,0,1-1.3,10.81h-3.47a103.86,103.86,0,0,1-1.08-10.65q0-100.24,0-200.4a20.27,20.27,0,0,0-6.36-15.94c-11.06-10.88-21.69-22.15-32.1-33.95a25.76,25.76,0,0,1-5.35-14.33c-.72-12.8,0-25.6,0-40.85L253,556c-5.21,2.68-10.41,5.21-15.62,7.66s-9.18.84-10.48-5.21a231.7,231.7,0,0,1-5.5-31.42c-.51-7.28-2.68-9.35-9.11-9.58-12.73-.38-25.38-2-38-2.22a10.74,10.74,0,0,1-10.77-7.05,224.61,224.61,0,0,1-21.69-84.3,723.84,723.84,0,0,1,0-80.85A309.85,309.85,0,0,1,169.59,235c29-64.48,75.66-118.19,133.91-154.11C360,48.7,391.57,37,424,32.76A373.41,373.41,0,0,1,560.4,30,359.16,359.16,0,0,1,699.74,81.5c10.27,6.67,35.72,21.3,44.4,30.65C743.41,113.15,730.4,115.07,729.6,115.83ZM321.51,874.51l52.28-28.43A331.87,331.87,0,0,0,322.59,841c-1.59,0-4.84,4.37-4.7,6.51.65,8.35,2.46,16.94,3.69,26.67Z"/><path class="cls-13" d="M133.37,1589.23l983.36-2.86s-23.07-266-77.15-346.19-117.79-156.61-117.79-156.61l-460.95,5.95S113,1291.35,133.37,1589.23Z"/></g></g></g></svg>